<svg width="20" height="20" viewBox="0 0 20 20" fill="none" xmlns="http://www.w3.org/2000/svg">
<path fill-rule="evenodd" clip-rule="evenodd" d="M16.6559 0.211277C17.1875 -0.0522146 17.8117 -0.0521955 18.3434 0.211328C18.629 0.352897 18.8696 0.59507 19.0777 0.804538L19.1946 0.921447C19.404 1.12954 19.6461 1.37013 19.7876 1.65572C20.0511 2.18734 20.0511 2.81151 19.7876 3.34312C19.646 3.62871 19.4039 3.86929 19.1945 4.07737L9.37241 13.8994H6.09961V10.6266L15.9215 0.804452C16.1296 0.594995 16.3702 0.35283 16.6559 0.211277ZM17.5703 1.84277C17.5313 1.80371 17.468 1.80371 17.4289 1.84277L7.89966 11.372V12.0992H8.62686L18.156 2.5699C18.195 2.53084 18.195 2.46753 18.156 2.42848L17.5703 1.84277Z" fill="#47484C"/>
<path fill-rule="evenodd" clip-rule="evenodd" d="M5.46286 0.59961C4.79406 0.599598 4.23807 0.599587 3.78433 0.63666C3.31179 0.675268 2.87145 0.758526 2.45604 0.970188C1.81629 1.29616 1.29616 1.81629 0.970188 2.45604C0.758526 2.87145 0.675267 3.31179 0.63666 3.78433C0.599587 4.23807 0.599598 4.79406 0.59961 5.46286V14.5364C0.599598 15.2052 0.599587 15.7612 0.63666 16.2149C0.675267 16.6874 0.758526 17.1278 0.970188 17.5432C1.29616 18.1829 1.81629 18.7031 2.45604 19.029C2.87145 19.2407 3.31179 19.324 3.78433 19.3626C4.23807 19.3996 4.79405 19.3996 5.46285 19.3996H14.5364C15.2052 19.3996 15.7612 19.3996 16.215 19.3626C16.6875 19.324 17.1279 19.2407 17.5433 19.029C18.183 18.7031 18.7032 18.1829 19.0291 17.5432C19.2408 17.1277 19.3241 16.6874 19.3627 16.2149C19.3997 15.7611 19.3997 15.2051 19.3997 14.5363L19.3996 8.9996L17.5996 8.99962L17.5997 14.4996C17.5997 15.2145 17.599 15.6966 17.5686 16.0683C17.5391 16.4295 17.4861 16.6066 17.4253 16.726C17.2719 17.027 17.0272 17.2718 16.7261 17.4252C16.6067 17.486 16.4296 17.539 16.0684 17.5685C15.6967 17.5989 15.2146 17.5996 14.4997 17.5996H5.49961C4.78469 17.5996 4.30263 17.5989 3.9309 17.5685C3.56968 17.539 3.39259 17.486 3.27323 17.4252C2.97217 17.2718 2.7274 17.0271 2.574 16.726C2.51318 16.6066 2.4602 16.4295 2.43068 16.0683C2.40031 15.6966 2.39961 15.2145 2.39961 14.4996V5.49961C2.39961 4.78469 2.40031 4.30263 2.43068 3.9309C2.4602 3.56968 2.51318 3.39259 2.574 3.27323C2.7274 2.97217 2.97217 2.7274 3.27323 2.574C3.39259 2.51318 3.56968 2.4602 3.9309 2.43068C4.30263 2.40031 4.78469 2.39961 5.49961 2.39961H10.9996V0.59961L5.46286 0.59961Z" fill="#47484C"/>
</svg>
