<svg width="20" height="20" viewBox="0 0 20 20" fill="none" xmlns="http://www.w3.org/2000/svg">
<g clip-path="url(#clip0_155_24709)">
<rect x="1.25" y="11.25" width="1.25" height="1.25" fill="white"/>
<rect x="7.5" y="1.25" width="1.25" height="1.25" fill="white"/>
<rect x="8.75" y="1.25" width="1.25" height="1.25" fill="white"/>
<rect x="10" y="1.25" width="1.25" height="1.25" fill="white"/>
<rect x="11.25" y="1.25" width="1.25" height="1.25" fill="white"/>
<rect x="17.5" y="7.5" width="1.25" height="1.25" fill="white"/>
<rect x="17.5" y="8.75" width="1.25" height="1.25" fill="white"/>
<rect x="17.5" y="10" width="1.25" height="1.25" fill="white"/>
<rect x="17.5" y="11.25" width="1.25" height="1.25" fill="white"/>
<rect x="11.25" y="17.5" width="1.25" height="1.25" fill="white"/>
<rect x="10" y="17.5" width="1.25" height="1.25" fill="white"/>
<rect x="8.75" y="17.5" width="1.25" height="1.25" fill="white"/>
<rect x="7.5" y="17.5" width="1.25" height="1.25" fill="white"/>
<rect x="6.25" y="16.25" width="1.25" height="1.25" fill="white"/>
<rect x="12.5" y="16.25" width="1.25" height="1.25" fill="white"/>
<rect x="12.5" y="2.5" width="1.25" height="1.25" fill="white"/>
<rect x="1.25" y="10" width="1.25" height="1.25" fill="white"/>
<rect x="1.25" y="8.75" width="1.25" height="1.25" fill="white"/>
<rect x="1.25" y="7.5" width="1.25" height="1.25" fill="white"/>
<rect x="6.25" y="2.5" width="1.25" height="1.25" fill="white"/>
<rect x="2.5" y="6.25" width="1.25" height="1.25" fill="white"/>
<rect x="16.25" y="6.25" width="1.25" height="1.25" fill="white"/>
<rect x="16.25" y="12.5" width="1.25" height="1.25" fill="white"/>
<rect x="2.5" y="12.5" width="1.25" height="1.25" fill="white"/>
<rect x="2.5" y="5" width="1.25" height="1.25" fill="white"/>
<rect x="5" y="2.5" width="1.25" height="1.25" fill="white"/>
<rect x="13.75" y="2.5" width="1.25" height="1.25" fill="white"/>
<rect x="16.25" y="5" width="1.25" height="1.25" fill="white"/>
<rect x="16.25" y="13.75" width="1.25" height="1.25" fill="white"/>
<rect x="13.75" y="16.25" width="1.25" height="1.25" fill="white"/>
<rect x="5" y="16.25" width="1.25" height="1.25" fill="white"/>
<rect x="3.75" y="3.75" width="1.25" height="1.25" fill="white"/>
<rect x="15" y="3.75" width="1.25" height="1.25" fill="white"/>
<rect x="15" y="15" width="1.25" height="1.25" fill="white"/>
<rect x="3.75" y="15" width="1.25" height="1.25" fill="white"/>
<rect x="2.5" y="13.75" width="1.25" height="1.25" fill="white"/>
<rect x="8.75" y="13.75" width="1.25" height="1.25" fill="black"/>
<rect x="8.75" y="15" width="1.25" height="1.25" fill="white"/>
<rect x="8.75" y="16.25" width="1.25" height="1.25" fill="white"/>
<rect x="10" y="16.25" width="1.25" height="1.25" fill="white"/>
<rect x="10" y="15" width="1.25" height="1.25" fill="white"/>
<rect x="10" y="13.75" width="1.25" height="1.25" fill="black"/>
<rect x="10" y="12.5" width="1.25" height="1.25" fill="white"/>
<rect x="10" y="11.25" width="1.25" height="1.25" fill="white"/>
<rect x="10" y="10" width="1.25" height="1.25" fill="black"/>
<rect x="10" y="8.75" width="1.25" height="1.25" fill="white"/>
<rect x="10" y="7.5" width="1.25" height="1.25" fill="white"/>
<rect x="10" y="6.25" width="1.25" height="1.25" fill="white"/>
<rect x="10" y="5" width="1.25" height="1.25" fill="white"/>
<rect x="10" y="3.75" width="1.25" height="1.25" fill="white"/>
<rect x="10" y="2.5" width="1.25" height="1.25" fill="white"/>
<rect x="11.25" y="2.5" width="1.25" height="1.25" fill="white"/>
<rect x="11.25" y="3.75" width="1.25" height="1.25" fill="white"/>
<rect x="11.25" y="5" width="1.25" height="1.25" fill="white"/>
<rect x="11.25" y="6.25" width="1.25" height="1.25" fill="white"/>
<rect x="11.25" y="7.5" width="1.25" height="1.25" fill="black"/>
<rect x="11.25" y="8.75" width="1.25" height="1.25" fill="white"/>
<rect x="11.25" y="10" width="1.25" height="1.25" fill="black"/>
<rect x="11.25" y="11.25" width="1.25" height="1.25" fill="white"/>
<rect x="11.25" y="12.5" width="1.25" height="1.25" fill="white"/>
<rect x="11.25" y="13.75" width="1.25" height="1.25" fill="black"/>
<rect x="11.25" y="15" width="1.25" height="1.25" fill="white"/>
<rect x="11.25" y="16.25" width="1.25" height="1.25" fill="white"/>
<rect x="12.5" y="15" width="1.25" height="1.25" fill="white"/>
<rect x="12.5" y="13.75" width="1.25" height="1.25" fill="black"/>
<rect x="12.5" y="12.5" width="1.25" height="1.25" fill="white"/>
<rect x="12.5" y="11.25" width="1.25" height="1.25" fill="white"/>
<rect x="12.5" y="10" width="1.25" height="1.25" fill="black"/>
<rect x="12.5" y="8.75" width="1.25" height="1.25" fill="white"/>
<rect x="12.5" y="7.5" width="1.25" height="1.25" fill="white"/>
<rect x="12.5" y="6.25" width="1.25" height="1.25" fill="black"/>
<rect x="12.5" y="5" width="1.25" height="1.25" fill="white"/>
<rect x="12.5" y="3.75" width="1.25" height="1.25" fill="white"/>
<rect x="13.75" y="3.75" width="1.25" height="1.25" fill="white"/>
<rect x="13.75" y="5" width="1.25" height="1.25" fill="white"/>
<rect x="13.75" y="6.25" width="1.25" height="1.25" fill="white"/>
<rect x="13.75" y="7.5" width="1.25" height="1.25" fill="black"/>
<rect x="13.75" y="8.75" width="1.25" height="1.25" fill="white"/>
<rect x="13.75" y="10" width="1.25" height="1.25" fill="black"/>
<rect x="13.75" y="11.25" width="1.25" height="1.25" fill="white"/>
<rect x="13.75" y="12.5" width="1.25" height="1.25" fill="black"/>
<rect x="13.75" y="13.75" width="1.25" height="1.25" fill="white"/>
<rect x="13.75" y="15" width="1.25" height="1.25" fill="white"/>
<rect x="15" y="13.75" width="1.25" height="1.25" fill="white"/>
<rect x="15" y="12.5" width="1.25" height="1.25" fill="white"/>
<rect x="15" y="11.25" width="1.25" height="1.25" fill="black"/>
<rect x="15" y="10" width="1.25" height="1.25" fill="black"/>
<rect x="15" y="8.75" width="1.25" height="1.25" fill="white"/>
<rect x="15" y="7.5" width="1.25" height="1.25" fill="white"/>
<rect x="15" y="6.25" width="1.25" height="1.25" fill="white"/>
<rect x="15" y="5" width="1.25" height="1.25" fill="white"/>
<rect x="16.25" y="7.5" width="1.25" height="1.25" fill="white"/>
<rect x="16.25" y="8.75" width="1.25" height="1.25" fill="white"/>
<rect x="16.25" y="10" width="1.25" height="1.25" fill="white"/>
<rect x="16.25" y="11.25" width="1.25" height="1.25" fill="white"/>
<rect x="8.75" y="2.5" width="1.25" height="1.25" fill="white"/>
<rect x="8.75" y="3.75" width="1.25" height="1.25" fill="white"/>
<rect x="8.75" y="5" width="1.25" height="1.25" fill="white"/>
<rect x="8.75" y="6.25" width="1.25" height="1.25" fill="white"/>
<rect x="8.75" y="7.5" width="1.25" height="1.25" fill="white"/>
<rect x="8.75" y="8.75" width="1.25" height="1.25" fill="white"/>
<rect x="8.75" y="10" width="1.25" height="1.25" fill="black"/>
<rect x="8.75" y="11.25" width="1.25" height="1.25" fill="white"/>
<rect x="8.75" y="12.5" width="1.25" height="1.25" fill="white"/>
<rect x="7.5" y="12.5" width="1.25" height="1.25" fill="white"/>
<rect x="7.5" y="13.75" width="1.25" height="1.25" fill="black"/>
<rect x="7.5" y="15" width="1.25" height="1.25" fill="white"/>
<rect x="7.5" y="16.25" width="1.25" height="1.25" fill="white"/>
<rect x="6.25" y="15" width="1.25" height="1.25" fill="white"/>
<rect x="6.25" y="13.75" width="1.25" height="1.25" fill="black"/>
<rect x="6.25" y="12.5" width="1.25" height="1.25" fill="white"/>
<rect x="6.25" y="11.25" width="1.25" height="1.25" fill="white"/>
<rect x="6.25" y="10" width="1.25" height="1.25" fill="black"/>
<rect x="6.25" y="8.75" width="1.25" height="1.25" fill="white"/>
<rect x="6.25" y="7.5" width="1.25" height="1.25" fill="white"/>
<rect x="6.25" y="6.25" width="1.25" height="1.25" fill="black"/>
<rect x="6.25" y="5" width="1.25" height="1.25" fill="white"/>
<rect x="6.25" y="3.75" width="1.25" height="1.25" fill="white"/>
<rect x="7.5" y="3.75" width="1.25" height="1.25" fill="white"/>
<rect x="7.5" y="5" width="1.25" height="1.25" fill="white"/>
<rect x="7.5" y="6.25" width="1.25" height="1.25" fill="white"/>
<rect x="7.5" y="7.5" width="1.25" height="1.25" fill="black"/>
<rect x="7.5" y="8.75" width="1.25" height="1.25" fill="white"/>
<rect x="7.5" y="10" width="1.25" height="1.25" fill="black"/>
<rect x="7.5" y="11.25" width="1.25" height="1.25" fill="white"/>
<rect x="7.5" y="2.5" width="1.25" height="1.25" fill="white"/>
<rect x="5" y="3.75" width="1.25" height="1.25" fill="white"/>
<rect x="5" y="5" width="1.25" height="1.25" fill="white"/>
<rect x="5" y="6.25" width="1.25" height="1.25" fill="white"/>
<rect x="5" y="7.5" width="1.25" height="1.25" fill="black"/>
<rect x="5" y="8.75" width="1.25" height="1.25" fill="white"/>
<rect x="5" y="10" width="1.25" height="1.25" fill="black"/>
<rect x="5" y="11.25" width="1.25" height="1.25" fill="white"/>
<rect x="5" y="12.5" width="1.25" height="1.25" fill="black"/>
<rect x="5" y="13.75" width="1.25" height="1.25" fill="white"/>
<rect x="5" y="15" width="1.25" height="1.25" fill="white"/>
<rect x="3.75" y="13.75" width="1.25" height="1.25" fill="white"/>
<rect x="3.75" y="12.5" width="1.25" height="1.25" fill="white"/>
<rect x="3.75" y="11.25" width="1.25" height="1.25" fill="black"/>
<rect x="3.75" y="10" width="1.25" height="1.25" fill="black"/>
<rect x="3.75" y="8.75" width="1.25" height="1.25" fill="white"/>
<rect x="3.75" y="7.5" width="1.25" height="1.25" fill="white"/>
<rect x="3.75" y="6.25" width="1.25" height="1.25" fill="white"/>
<rect x="3.75" y="5" width="1.25" height="1.25" fill="white"/>
<rect x="2.5" y="7.5" width="1.25" height="1.25" fill="white"/>
<rect x="2.5" y="8.75" width="1.25" height="1.25" fill="white"/>
<rect x="2.5" y="10" width="1.25" height="1.25" fill="white"/>
<rect x="2.5" y="11.25" width="1.25" height="1.25" fill="white"/>
<rect x="7.5" y="18.75" width="1.25" height="1.25" fill="black"/>
<rect x="8.75" y="18.75" width="1.25" height="1.25" fill="black"/>
<rect x="10" y="18.75" width="1.25" height="1.25" fill="black"/>
<rect x="11.25" y="18.75" width="1.25" height="1.25" fill="black"/>
<rect x="12.5" y="17.5" width="1.25" height="1.25" fill="black"/>
<rect x="13.75" y="17.5" width="1.25" height="1.25" fill="black"/>
<rect x="15" y="16.25" width="1.25" height="1.25" fill="black"/>
<rect x="16.25" y="15" width="1.25" height="1.25" fill="black"/>
<rect x="17.5" y="13.75" width="1.25" height="1.25" fill="black"/>
<rect x="17.5" y="12.5" width="1.25" height="1.25" fill="black"/>
<rect x="18.75" y="11.25" width="1.25" height="1.25" fill="black"/>
<rect x="18.75" y="10" width="1.25" height="1.25" fill="black"/>
<rect x="18.75" y="8.75" width="1.25" height="1.25" fill="black"/>
<rect x="18.75" y="7.5" width="1.25" height="1.25" fill="black"/>
<rect x="17.5" y="6.25" width="1.25" height="1.25" fill="black"/>
<rect x="17.5" y="5" width="1.25" height="1.25" fill="black"/>
<rect x="16.25" y="3.75" width="1.25" height="1.25" fill="black"/>
<rect x="15" y="2.5" width="1.25" height="1.25" fill="black"/>
<rect x="13.75" y="1.25" width="1.25" height="1.25" fill="black"/>
<rect x="12.5" y="1.25" width="1.25" height="1.25" fill="black"/>
<rect x="11.25" width="1.25" height="1.25" fill="black"/>
<rect x="10" width="1.25" height="1.25" fill="black"/>
<rect x="8.75" width="1.25" height="1.25" fill="black"/>
<rect x="7.5" width="1.25" height="1.25" fill="black"/>
<rect x="6.25" y="1.25" width="1.25" height="1.25" fill="black"/>
<rect x="5" y="1.25" width="1.25" height="1.25" fill="black"/>
<rect x="3.75" y="2.5" width="1.25" height="1.25" fill="black"/>
<rect x="2.5" y="3.75" width="1.25" height="1.25" fill="black"/>
<rect x="1.25" y="5" width="1.25" height="1.25" fill="black"/>
<rect x="1.25" y="6.25" width="1.25" height="1.25" fill="black"/>
<rect y="7.5" width="1.25" height="1.25" fill="black"/>
<rect y="8.75" width="1.25" height="1.25" fill="black"/>
<rect y="10" width="1.25" height="1.25" fill="black"/>
<rect y="11.25" width="1.25" height="1.25" fill="black"/>
<rect x="1.25" y="12.5" width="1.25" height="1.25" fill="black"/>
<rect x="1.25" y="13.75" width="1.25" height="1.25" fill="black"/>
<rect x="3.75" y="16.25" width="1.25" height="1.25" fill="black"/>
<rect x="2.5" y="15" width="1.25" height="1.25" fill="black"/>
<rect x="5" y="17.5" width="1.25" height="1.25" fill="black"/>
<rect x="6.25" y="17.5" width="1.25" height="1.25" fill="black"/>
</g>
<defs>
<clipPath id="clip0_155_24709">
<rect width="20" height="20" fill="white"/>
</clipPath>
</defs>
</svg>
