<svg width="644" height="497" viewBox="0 0 644 497" fill="none" xmlns="http://www.w3.org/2000/svg">
<mask id="path-1-outside-1_124_12711" maskUnits="userSpaceOnUse" x="144" y="163.381" width="39" height="38" fill="black">
<rect fill="white" x="144" y="163.381" width="39" height="38"/>
<path fill-rule="evenodd" clip-rule="evenodd" d="M146 200.381L182 200.381L182 164.382L174.285 164.382L174.285 191.381L153.714 191.381L153.714 164.382L146 164.382L146 200.381Z"/>
</mask>
<path fill-rule="evenodd" clip-rule="evenodd" d="M146 200.381L182 200.381L182 164.382L174.285 164.382L174.285 191.381L153.714 191.381L153.714 164.382L146 164.382L146 200.381Z" fill="#252525"/>
<path d="M182 200.381L182 201.381L183 201.381L183 200.381L182 200.381ZM146 200.381L145 200.381L145 201.381L146 201.381L146 200.381ZM182 164.382L183 164.382L183 163.382L182 163.382L182 164.382ZM174.285 164.382L174.285 163.382L173.285 163.382L173.285 164.382L174.285 164.382ZM174.285 191.381L174.285 192.381L175.285 192.381L175.285 191.381L174.285 191.381ZM153.714 191.381L152.714 191.381L152.714 192.381L153.714 192.381L153.714 191.381ZM153.714 164.382L154.714 164.382L154.714 163.382L153.714 163.382L153.714 164.382ZM146 164.382L146 163.382L145 163.382L145 164.382L146 164.382ZM182 199.381L146 199.381L146 201.381L182 201.381L182 199.381ZM181 164.382L181 200.381L183 200.381L183 164.382L181 164.382ZM174.285 165.382L182 165.382L182 163.382L174.285 163.382L174.285 165.382ZM173.285 164.382L173.285 191.381L175.285 191.381L175.285 164.382L173.285 164.382ZM174.285 190.381L153.714 190.381L153.714 192.381L174.285 192.381L174.285 190.381ZM154.714 191.381L154.714 164.382L152.714 164.382L152.714 191.381L154.714 191.381ZM146 165.382L153.714 165.382L153.714 163.382L146 163.382L146 165.382ZM147 200.381L147 164.382L145 164.382L145 200.381L147 200.381Z" fill="black" mask="url(#path-1-outside-1_124_12711)"/>
<mask id="path-3-outside-2_124_12711" maskUnits="userSpaceOnUse" x="246.001" y="183.381" width="39" height="38" fill="black">
<rect fill="white" x="246.001" y="183.381" width="39" height="38"/>
<path fill-rule="evenodd" clip-rule="evenodd" d="M248.001 220.381L284.001 220.381L284.001 184.382L276.286 184.382L276.286 211.381L255.715 211.381L255.715 184.382L248.001 184.382L248.001 220.381Z"/>
</mask>
<path fill-rule="evenodd" clip-rule="evenodd" d="M248.001 220.381L284.001 220.381L284.001 184.382L276.286 184.382L276.286 211.381L255.715 211.381L255.715 184.382L248.001 184.382L248.001 220.381Z" fill="#252525"/>
<path d="M284.001 220.381L284.001 221.381L285.001 221.381L285.001 220.381L284.001 220.381ZM248.001 220.381L247.001 220.381L247.001 221.381L248.001 221.381L248.001 220.381ZM284.001 184.382L285.001 184.382L285.001 183.382L284.001 183.382L284.001 184.382ZM276.286 184.382L276.286 183.382L275.286 183.382L275.286 184.382L276.286 184.382ZM276.286 211.381L276.286 212.381L277.286 212.381L277.286 211.381L276.286 211.381ZM255.715 211.381L254.715 211.381L254.715 212.381L255.715 212.381L255.715 211.381ZM255.715 184.382L256.715 184.382L256.715 183.382L255.715 183.382L255.715 184.382ZM248.001 184.382L248.001 183.382L247.001 183.382L247.001 184.382L248.001 184.382ZM284.001 219.381L248.001 219.381L248.001 221.381L284.001 221.381L284.001 219.381ZM283.001 184.382L283.001 220.381L285.001 220.381L285.001 184.382L283.001 184.382ZM276.286 185.382L284.001 185.382L284.001 183.382L276.286 183.382L276.286 185.382ZM275.286 184.382L275.286 211.381L277.286 211.381L277.286 184.382L275.286 184.382ZM276.286 210.381L255.715 210.381L255.715 212.381L276.286 212.381L276.286 210.381ZM256.715 211.381L256.715 184.382L254.715 184.382L254.715 211.381L256.715 211.381ZM248.001 185.382L255.715 185.382L255.715 183.382L248.001 183.382L248.001 185.382ZM249.001 220.381L249.001 184.382L247.001 184.382L247.001 220.381L249.001 220.381Z" fill="black" mask="url(#path-3-outside-2_124_12711)"/>
<rect x="158" y="230.38" width="20.0001" height="19.9995" fill="#252525"/>
<rect x="176" y="210.381" width="20.0001" height="19.9995" fill="#252525"/>
<rect x="194" y="230.38" width="20.0001" height="19.9995" fill="#252525"/>
<rect x="214" y="210.381" width="20.0001" height="19.9995" fill="#252525"/>
<rect x="230" y="230.38" width="20.0001" height="19.9995" fill="#252525"/>
</svg>
